<svg width="769" height="445" viewBox="0 0 769 445" fill="none" xmlns="http://www.w3.org/2000/svg">
<rect width="769" height="445" fill="#227447"/>
<path d="M146.777 240H139.516L138.17 208.896L132.254 240H125.348L133.117 202.777H144.035L145.178 228.854L157.873 202.777H168.918L161.123 240H154.141L161.479 209.125L146.777 240ZM176.408 202.777H183.695L182.324 209.379H175.037L176.408 202.777ZM174.275 213.035H181.562L175.926 240H168.639L174.275 213.035ZM188.85 213.035H195.756L195.045 216.539C196.771 215.049 198.38 213.992 199.869 213.365C201.376 212.722 202.958 212.4 204.617 212.4C206.835 212.4 208.578 213.035 209.848 214.305C211.134 215.574 211.777 217.258 211.777 219.357C211.777 220.305 211.498 222.1 210.939 224.74L207.766 240H200.479L203.678 224.689C204.152 222.404 204.389 221.042 204.389 220.602C204.389 219.671 204.109 218.943 203.551 218.418C203.009 217.876 202.247 217.605 201.266 217.605C200.199 217.605 199.014 218.054 197.711 218.951C196.408 219.848 195.383 221.033 194.639 222.506C194.097 223.555 193.488 225.697 192.811 228.93L190.5 240H183.213L188.85 213.035ZM239.809 240H232.902L233.512 237.08C232.191 238.35 230.888 239.264 229.602 239.822C228.332 240.364 226.893 240.635 225.285 240.635C222.492 240.635 220.224 239.687 218.48 237.791C216.754 235.878 215.891 233.06 215.891 229.336C215.891 225.02 217.109 221.118 219.547 217.631C221.984 214.144 225.209 212.4 229.221 212.4C232.843 212.4 235.56 213.839 237.371 216.717L240.291 202.777H247.578L239.809 240ZM222.975 229.031C222.975 230.961 223.457 232.467 224.422 233.551C225.404 234.634 226.605 235.176 228.027 235.176C229.348 235.176 230.575 234.727 231.709 233.83C232.86 232.916 233.774 231.528 234.451 229.666C235.145 227.804 235.492 226.018 235.492 224.309C235.492 222.362 234.967 220.788 233.918 219.586C232.868 218.384 231.658 217.783 230.287 217.783C228.154 217.783 226.402 218.968 225.031 221.338C223.66 223.708 222.975 226.272 222.975 229.031ZM253.672 221.262L247.197 220.094C247.925 217.487 249.178 215.557 250.955 214.305C252.732 213.052 255.373 212.426 258.877 212.426C262.059 212.426 264.429 212.807 265.986 213.568C267.544 214.313 268.635 215.27 269.262 216.438C269.905 217.589 270.227 219.713 270.227 222.811L270.15 231.139C270.15 233.508 270.26 235.26 270.48 236.395C270.717 237.512 271.149 238.714 271.775 240H264.717C264.531 239.526 264.302 238.824 264.031 237.893C263.913 237.469 263.828 237.19 263.777 237.055C262.559 238.24 261.255 239.128 259.867 239.721C258.479 240.313 256.998 240.609 255.424 240.609C252.648 240.609 250.456 239.856 248.848 238.35C247.257 236.843 246.461 234.939 246.461 232.637C246.461 231.113 246.825 229.759 247.553 228.574C248.281 227.372 249.296 226.458 250.6 225.832C251.92 225.189 253.816 224.63 256.287 224.156C259.622 223.53 261.932 222.946 263.219 222.404V221.693C263.219 220.322 262.88 219.349 262.203 218.773C261.526 218.181 260.248 217.885 258.369 217.885C257.1 217.885 256.109 218.139 255.398 218.646C254.688 219.137 254.112 220.009 253.672 221.262ZM263.219 227.051C262.305 227.355 260.857 227.719 258.877 228.143C256.896 228.566 255.602 228.98 254.992 229.387C254.061 230.047 253.596 230.885 253.596 231.9C253.596 232.899 253.968 233.762 254.713 234.49C255.458 235.218 256.406 235.582 257.557 235.582C258.843 235.582 260.07 235.159 261.238 234.312C262.102 233.669 262.669 232.882 262.939 231.951C263.126 231.342 263.219 230.182 263.219 228.473V227.051ZM284.115 240H276.98V213.035H283.607V216.869C284.742 215.058 285.757 213.865 286.654 213.289C287.568 212.714 288.601 212.426 289.752 212.426C291.377 212.426 292.943 212.874 294.449 213.771L292.24 219.992C291.038 219.214 289.921 218.824 288.889 218.824C287.89 218.824 287.044 219.104 286.35 219.662C285.656 220.204 285.105 221.194 284.699 222.633C284.31 224.072 284.115 227.085 284.115 231.672V240ZM294.17 213.035H301.762L308.211 232.18L314.508 213.035H321.896L312.375 238.984L310.674 243.682C310.048 245.256 309.447 246.458 308.871 247.287C308.312 248.117 307.661 248.785 306.916 249.293C306.188 249.818 305.283 250.224 304.199 250.512C303.133 250.799 301.923 250.943 300.568 250.943C299.197 250.943 297.852 250.799 296.531 250.512L295.896 244.926C297.014 245.146 298.021 245.256 298.918 245.256C300.577 245.256 301.804 244.765 302.6 243.783C303.395 242.818 304.005 241.583 304.428 240.076L294.17 213.035Z" fill="white"/>
<path d="M123.24 248.227H166.557V253.686H123.24V248.227Z" fill="white"/>
<path d="M456.455 268.626H455.972V255.89H456.455V268.626ZM456.221 261.566H453.401V261.126H456.221V261.566ZM453.562 267.923H453.093V256.234H453.562V267.923ZM450.933 264.957H446.223V257.523H450.933V264.957ZM446.685 264.554H450.464V257.94H446.685V264.554ZM462.205 256.461C462.825 256.461 463.376 256.576 463.86 256.805C464.343 257.03 464.722 257.35 464.995 257.765C465.269 258.18 465.405 258.658 465.405 259.2C465.405 259.732 465.269 260.206 464.995 260.621C464.722 261.031 464.343 261.349 463.86 261.573C463.376 261.798 462.825 261.91 462.205 261.91C461.594 261.91 461.045 261.798 460.557 261.573C460.068 261.349 459.688 261.031 459.414 260.621C459.146 260.206 459.011 259.732 459.011 259.2C459.011 258.668 459.148 258.192 459.421 257.772C459.7 257.352 460.081 257.03 460.564 256.805C461.047 256.576 461.594 256.461 462.205 256.461ZM462.205 256.871C461.692 256.871 461.228 256.976 460.813 257.186C460.398 257.391 460.071 257.672 459.832 258.028C459.597 258.38 459.48 258.77 459.48 259.2C459.48 259.62 459.597 260.008 459.832 260.365C460.071 260.716 460.398 260.995 460.813 261.2C461.228 261.405 461.692 261.507 462.205 261.507C462.727 261.507 463.196 261.405 463.611 261.2C464.026 260.995 464.351 260.716 464.585 260.365C464.824 260.008 464.944 259.62 464.944 259.2C464.944 258.77 464.824 258.38 464.585 258.028C464.351 257.672 464.026 257.391 463.611 257.186C463.196 256.976 462.727 256.871 462.205 256.871ZM468.994 262.584H468.518V255.89H468.994V262.584ZM468.994 265.968H461.45V268.289H461.003V265.558H468.518V263.734H460.952V263.302H468.994V265.968ZM469.551 268.414H461.003V267.989H469.551V268.414ZM475.776 256.908C476.436 256.908 477.017 257.025 477.52 257.259C478.022 257.494 478.413 257.826 478.691 258.255C478.97 258.685 479.109 259.185 479.109 259.757C479.109 260.318 478.97 260.816 478.691 261.251C478.413 261.681 478.022 262.015 477.52 262.254C477.017 262.489 476.436 262.606 475.776 262.606C475.122 262.606 474.541 262.489 474.033 262.254C473.53 262.015 473.137 261.681 472.854 261.251C472.576 260.816 472.437 260.318 472.437 259.757C472.437 259.185 472.576 258.685 472.854 258.255C473.137 257.826 473.53 257.494 474.033 257.259C474.541 257.025 475.122 256.908 475.776 256.908ZM475.776 257.332C475.229 257.332 474.736 257.44 474.297 257.655C473.857 257.865 473.513 258.153 473.264 258.519C473.02 258.885 472.898 259.298 472.898 259.757C472.898 260.206 473.02 260.616 473.264 260.987C473.513 261.353 473.857 261.644 474.297 261.859C474.736 262.074 475.229 262.181 475.776 262.181C476.328 262.181 476.821 262.074 477.256 261.859C477.69 261.644 478.032 261.353 478.281 260.987C478.535 260.616 478.662 260.206 478.662 259.757C478.662 259.298 478.535 258.885 478.281 258.519C478.032 258.153 477.69 257.865 477.256 257.655C476.821 257.44 476.328 257.332 475.776 257.332ZM481.775 268.634H481.299V255.89H481.775V268.634ZM471.667 265.155C472.864 265.155 473.884 265.147 474.729 265.133C475.579 265.113 476.501 265.072 477.498 265.008C478.494 264.94 479.436 264.837 480.325 264.701L480.391 265.067C479.463 265.233 478.499 265.357 477.498 265.44C476.501 265.523 475.574 265.575 474.714 265.594C473.86 265.614 472.881 265.623 471.777 265.623L471.667 265.155ZM497.72 263.228H497.244V255.89H497.72V263.228ZM499.807 259.749H497.595V259.347H499.807V259.749ZM494.321 256.805C494.321 257.806 494.072 258.727 493.574 259.566C493.076 260.401 492.371 261.129 491.458 261.749C490.544 262.364 489.463 262.848 488.213 263.199L488.03 262.796C489.216 262.45 490.242 261.993 491.106 261.427C491.975 260.86 492.646 260.194 493.12 259.427C493.599 258.661 493.838 257.823 493.838 256.915V256.805H494.321ZM494.006 257.237H488.542V256.805H494.006V257.237ZM497.72 268.407H489.89V263.917H497.72V268.407ZM490.366 267.975H497.229V264.356H490.366V267.975ZM510.977 259.859H507.615V259.427H510.977V259.859ZM511.233 263.507H510.757V255.89H511.233V263.507ZM507.139 264.005C507.998 264.005 508.738 264.095 509.358 264.276C509.978 264.452 510.452 264.713 510.779 265.06C511.111 265.401 511.277 265.814 511.277 266.297C511.277 266.771 511.111 267.181 510.779 267.528C510.452 267.87 509.978 268.128 509.358 268.304C508.738 268.485 507.998 268.578 507.139 268.582C506.279 268.578 505.54 268.485 504.919 268.304C504.299 268.128 503.823 267.87 503.491 267.528C503.159 267.181 502.993 266.771 502.993 266.297C502.993 265.814 503.159 265.401 503.491 265.06C503.823 264.713 504.299 264.452 504.919 264.276C505.54 264.095 506.279 264.005 507.139 264.005ZM507.139 264.415C506.411 264.415 505.767 264.493 505.205 264.649C504.648 264.801 504.216 265.018 503.909 265.301C503.601 265.584 503.447 265.916 503.447 266.297C503.447 266.664 503.601 266.988 503.909 267.271C504.216 267.55 504.648 267.765 505.205 267.916C505.767 268.072 506.411 268.15 507.139 268.15C507.866 268.15 508.508 268.072 509.065 267.916C509.626 267.765 510.061 267.55 510.369 267.271C510.676 266.988 510.83 266.664 510.83 266.297C510.83 265.916 510.676 265.584 510.369 265.301C510.061 265.018 509.626 264.801 509.065 264.649C508.508 264.493 507.866 264.415 507.139 264.415ZM504.861 258.468C504.861 259.181 504.695 259.854 504.363 260.489C504.031 261.119 503.594 261.671 503.052 262.144C502.515 262.618 501.929 262.992 501.294 263.265L501.045 262.862C501.621 262.638 502.17 262.306 502.693 261.866C503.22 261.422 503.647 260.904 503.975 260.313C504.302 259.723 504.465 259.107 504.465 258.468V257.186H504.861V258.468ZM504.919 258.453C504.919 259.024 505.073 259.581 505.381 260.123C505.693 260.66 506.106 261.134 506.619 261.544C507.136 261.954 507.683 262.264 508.259 262.474L507.981 262.877C507.371 262.623 506.799 262.274 506.267 261.83C505.74 261.385 505.315 260.872 504.993 260.291C504.67 259.706 504.509 259.093 504.509 258.453V257.186H504.919V258.453ZM508.069 257.428H501.265V256.996H508.069V257.428ZM525.42 262.035H513.826V261.595H525.42V262.035ZM524.021 260.226H515.481V259.786H524.021V260.226ZM523.867 256.908H515.942V260.035H515.481V256.497H523.867V256.908ZM523.845 266.151H515.811V268.289H515.349V265.704H523.398V263.976H515.312V263.551H523.845V266.151ZM524.292 268.421H515.349V267.989H524.292V268.421ZM532.576 256.153C533.489 256.153 534.272 256.239 534.927 256.41C535.586 256.581 536.086 256.834 536.428 257.171C536.775 257.508 536.948 257.916 536.948 258.394C536.948 258.873 536.775 259.281 536.428 259.618C536.086 259.955 535.586 260.208 534.927 260.379C534.272 260.55 533.489 260.638 532.576 260.643C531.663 260.638 530.879 260.55 530.225 260.379C529.57 260.208 529.07 259.955 528.723 259.618C528.376 259.281 528.203 258.873 528.203 258.394C528.203 257.916 528.376 257.508 528.723 257.171C529.07 256.834 529.57 256.581 530.225 256.41C530.879 256.239 531.663 256.153 532.576 256.153ZM532.576 256.571C531.804 256.561 531.123 256.632 530.532 256.783C529.941 256.93 529.485 257.142 529.163 257.42C528.84 257.694 528.679 258.018 528.679 258.394C528.679 258.761 528.84 259.083 529.163 259.361C529.49 259.635 529.946 259.85 530.532 260.006C531.118 260.157 531.799 260.233 532.576 260.233C533.352 260.233 534.036 260.157 534.626 260.006C535.222 259.85 535.681 259.635 536.003 259.361C536.326 259.083 536.487 258.761 536.487 258.394C536.487 258.018 536.323 257.694 535.996 257.42C535.674 257.142 535.217 256.93 534.626 256.783C534.036 256.632 533.352 256.561 532.576 256.571ZM538.384 262.181H526.79V261.764H538.384V262.181ZM536.809 266.092H528.774V268.084H528.313V265.675H536.362V264.071H528.276V263.646H536.809V266.092ZM537.256 268.421H528.313V267.982H537.256V268.421ZM553.054 262.774H552.593V255.89H553.054V262.774ZM555.039 259.332H552.666V258.885H555.039V259.332ZM545.679 257.787C545.679 258.182 545.593 258.641 545.422 259.164C545.256 259.686 545.002 260.191 544.661 260.68C544.324 261.163 543.916 261.541 543.438 261.815L543.137 261.463C543.591 261.209 543.979 260.86 544.302 260.416C544.629 259.967 544.873 259.505 545.034 259.032C545.195 258.553 545.276 258.138 545.276 257.787V256.519H545.679V257.787ZM545.759 257.787C545.759 258.128 545.818 258.539 545.935 259.017C546.057 259.496 546.257 259.969 546.536 260.438C546.819 260.907 547.185 261.28 547.634 261.559L547.341 261.954C546.863 261.646 546.472 261.239 546.169 260.731C545.872 260.218 545.659 259.696 545.532 259.164C545.405 258.631 545.342 258.172 545.342 257.787V256.519H545.759V257.787ZM549.348 257.801C549.348 258.231 549.282 258.709 549.15 259.237C549.023 259.764 548.809 260.279 548.506 260.782C548.208 261.28 547.82 261.673 547.341 261.961L547.07 261.573C547.52 261.295 547.881 260.929 548.154 260.475C548.433 260.02 548.63 259.557 548.748 259.083C548.87 258.604 548.931 258.177 548.931 257.801V256.534H549.348V257.801ZM549.385 257.787C549.385 258.221 549.465 258.678 549.626 259.156C549.792 259.63 550.034 260.074 550.352 260.489C550.674 260.904 551.069 261.229 551.538 261.463L551.23 261.815C550.732 261.556 550.315 261.202 549.978 260.753C549.641 260.299 549.39 259.81 549.224 259.288C549.062 258.766 548.982 258.265 548.982 257.787V256.519H549.385V257.787ZM553.757 264.1H544.902V263.661H553.757V264.1ZM549.333 264.898C550.085 264.898 550.728 264.969 551.26 265.111C551.792 265.252 552.2 265.46 552.483 265.733C552.771 266.007 552.915 266.341 552.915 266.737C552.915 267.318 552.6 267.767 551.97 268.084C551.34 268.402 550.461 268.56 549.333 268.56C548.201 268.56 547.322 268.402 546.697 268.084C546.072 267.767 545.759 267.318 545.759 266.737C545.759 266.341 545.901 266.007 546.184 265.733C546.472 265.46 546.882 265.252 547.415 265.111C547.947 264.969 548.586 264.898 549.333 264.898ZM549.333 265.301C548.708 265.301 548.159 265.36 547.686 265.477C547.217 265.589 546.855 265.755 546.602 265.975C546.348 266.195 546.221 266.449 546.221 266.737C546.221 267.02 546.348 267.269 546.602 267.484C546.855 267.694 547.217 267.855 547.686 267.967C548.159 268.084 548.708 268.143 549.333 268.143C549.954 268.143 550.498 268.084 550.967 267.967C551.44 267.855 551.804 267.694 552.058 267.484C552.317 267.269 552.446 267.02 552.446 266.737C552.446 266.449 552.317 266.195 552.058 265.975C551.804 265.755 551.44 265.589 550.967 265.477C550.498 265.36 549.954 265.301 549.333 265.301ZM549.583 263.932H549.121V262.181H549.583V263.932ZM559.47 256.974C560.076 256.974 560.608 257.152 561.067 257.508C561.526 257.865 561.885 258.37 562.144 259.024C562.402 259.679 562.532 260.44 562.532 261.31C562.532 262.169 562.402 262.923 562.144 263.573C561.885 264.222 561.523 264.727 561.06 265.089C560.601 265.445 560.071 265.623 559.47 265.623C558.87 265.623 558.335 265.448 557.866 265.096C557.402 264.74 557.041 264.234 556.782 263.58C556.528 262.926 556.401 262.169 556.401 261.31C556.401 260.44 556.528 259.679 556.782 259.024C557.041 258.37 557.402 257.865 557.866 257.508C558.335 257.152 558.87 256.974 559.47 256.974ZM559.47 257.369C558.958 257.369 558.499 257.542 558.093 257.889C557.693 258.231 557.38 258.7 557.156 259.295C556.936 259.891 556.826 260.562 556.826 261.31C556.826 262.042 556.936 262.708 557.156 263.309C557.38 263.905 557.693 264.373 558.093 264.715C558.499 265.057 558.958 265.228 559.47 265.228C559.973 265.228 560.422 265.057 560.818 264.715C561.213 264.373 561.523 263.905 561.748 263.309C561.973 262.708 562.085 262.042 562.085 261.31C562.085 260.562 561.973 259.891 561.748 259.295C561.523 258.7 561.213 258.231 560.818 257.889C560.422 257.542 559.973 257.369 559.47 257.369ZM565.754 268.626H565.264V255.89H565.754V268.626ZM568.105 261.705H565.615V261.266H568.105V261.705ZM579.084 261.31H570.764V260.87H579.084V261.31ZM580.674 263.8H569.021V263.375H580.674V263.8ZM575.049 268.546H574.602V263.565H575.049V268.546ZM578.872 257.149H571.226V261.082H570.764V256.703H578.872V257.149ZM586.145 260.247C586.145 261.014 585.955 261.79 585.574 262.577C585.193 263.363 584.712 264.068 584.131 264.693C583.555 265.313 582.979 265.782 582.402 266.1L582.095 265.726C582.632 265.448 583.181 265.013 583.743 264.422C584.309 263.827 584.78 263.158 585.156 262.415C585.532 261.673 585.72 260.951 585.72 260.247V257.53H586.145V260.247ZM586.189 260.247C586.189 260.956 586.375 261.661 586.746 262.364C587.122 263.062 587.598 263.683 588.174 264.225C588.75 264.767 589.321 265.167 589.888 265.426L589.58 265.799C588.975 265.497 588.379 265.062 587.793 264.496C587.212 263.924 586.729 263.27 586.343 262.533C585.962 261.79 585.771 261.029 585.771 260.247V257.53H586.189V260.247ZM589.565 257.706H582.424V257.274H589.565V257.706ZM592.341 268.626H591.873V255.89H592.341V268.626ZM608.14 262.503H607.664V255.89H608.14V262.503ZM610.227 259.376H607.861V258.951H610.227V259.376ZM604.683 261.654H599.006V256.739H604.683V261.654ZM599.46 261.229H604.25V257.171H599.46V261.229ZM608.14 265.938H600.815V268.275H600.369V265.506H607.678V263.631H600.325V263.192H608.14V265.938ZM608.696 268.414H600.369V267.989H608.696V268.414ZM620.957 257.801H612.563V257.384H620.957V257.801ZM622.876 266.561H611.282V266.129H622.876V266.561ZM616.672 266.378H616.226V261.412H616.672V266.378ZM621.206 258.687C621.206 259.444 621.199 260.064 621.184 260.548C621.169 261.031 621.13 261.6 621.067 262.254C621.008 262.904 620.913 263.602 620.781 264.349L620.283 264.261C620.42 263.539 620.52 262.857 620.583 262.218C620.652 261.573 620.696 261.009 620.715 260.526C620.735 260.038 620.745 259.425 620.745 258.687V257.384H621.206V258.687ZM457.29 282.078H445.637V281.639H457.29V282.078ZM451.665 286.626H451.218V281.778H451.665V286.626ZM447.717 276.497H455.225V274.446H455.686V279.793H447.249V274.446H447.717V276.497ZM455.225 279.39V276.936H447.717V279.39H455.225ZM468.438 281.177H467.961V273.89H468.438V281.177ZM470.525 277.684H468.313V277.273H470.525V277.684ZM460.256 279.72C461.55 279.729 462.637 279.703 463.516 279.639C464.399 279.576 465.305 279.454 466.233 279.273L466.313 279.712C465.669 279.83 465.044 279.922 464.438 279.991C463.833 280.059 463.206 280.105 462.556 280.13C461.907 280.154 461.14 280.166 460.256 280.166H459.326V279.72H460.256ZM464.915 275.237H459.788V279.969H459.326V274.812H464.915V275.237ZM468.438 286.407H460.667V281.976H468.438V286.407ZM461.113 285.975H467.947V282.408H461.113V285.975ZM473.579 283.301H476.838V281.368H477.292V286.414H473.11V281.368H473.579V283.301ZM476.838 285.989V283.719H473.579V285.989H476.838ZM480.713 282.503C480.713 283.02 480.605 283.54 480.391 284.063C480.181 284.581 479.875 285.057 479.475 285.491C479.075 285.926 478.606 286.268 478.069 286.517L477.791 286.114C478.289 285.899 478.728 285.599 479.109 285.213C479.495 284.822 479.792 284.39 480.002 283.916C480.212 283.438 480.317 282.967 480.317 282.503V281.316H480.713V282.503ZM480.75 282.503C480.75 282.972 480.854 283.443 481.064 283.916C481.274 284.39 481.57 284.822 481.951 285.213C482.336 285.599 482.778 285.899 483.276 286.114L482.998 286.517C482.471 286.258 482.009 285.916 481.614 285.491C481.218 285.061 480.911 284.588 480.691 284.07C480.476 283.548 480.369 283.025 480.369 282.503V281.316H480.75V282.503ZM481.694 277.588H478.003V277.156H481.694V277.588ZM475.044 274.527C475.674 274.527 476.228 274.649 476.707 274.893C477.19 275.132 477.571 275.469 477.849 275.904C478.127 276.333 478.267 276.834 478.267 277.405C478.267 277.967 478.127 278.465 477.849 278.899C477.571 279.329 477.19 279.661 476.707 279.895C476.228 280.13 475.674 280.247 475.044 280.247C474.414 280.247 473.855 280.13 473.367 279.895C472.878 279.661 472.5 279.329 472.231 278.899C471.968 278.465 471.836 277.967 471.836 277.405C471.836 276.834 471.968 276.333 472.231 275.904C472.5 275.469 472.878 275.132 473.367 274.893C473.855 274.649 474.414 274.527 475.044 274.527ZM475.044 274.959C474.512 274.959 474.038 275.066 473.623 275.281C473.208 275.491 472.881 275.784 472.642 276.16C472.407 276.531 472.29 276.946 472.29 277.405C472.29 277.854 472.407 278.265 472.642 278.636C472.881 279.002 473.208 279.292 473.623 279.507C474.038 279.722 474.512 279.83 475.044 279.83C475.576 279.83 476.05 279.722 476.465 279.507C476.88 279.292 477.205 279.002 477.439 278.636C477.678 278.265 477.798 277.854 477.798 277.405C477.798 276.946 477.678 276.531 477.439 276.16C477.205 275.784 476.88 275.491 476.465 275.281C476.05 275.066 475.576 274.959 475.044 274.959ZM481.951 280.643H481.475V273.89H481.951V280.643ZM494.885 286.634H494.417V273.89H494.885V286.634ZM488.264 274.974C488.879 274.974 489.424 275.152 489.897 275.508C490.376 275.865 490.747 276.37 491.011 277.024C491.274 277.679 491.406 278.44 491.406 279.31C491.406 280.169 491.274 280.923 491.011 281.573C490.747 282.222 490.376 282.727 489.897 283.089C489.424 283.445 488.879 283.623 488.264 283.623C487.654 283.623 487.112 283.445 486.638 283.089C486.165 282.727 485.793 282.222 485.525 281.573C485.256 280.923 485.122 280.169 485.122 279.31C485.122 278.44 485.256 277.679 485.525 277.024C485.793 276.37 486.165 275.865 486.638 275.508C487.112 275.152 487.654 274.974 488.264 274.974ZM488.264 275.369C487.751 275.369 487.29 275.542 486.88 275.889C486.475 276.231 486.157 276.7 485.928 277.295C485.698 277.891 485.583 278.562 485.583 279.31C485.583 280.042 485.698 280.708 485.928 281.309C486.157 281.905 486.475 282.373 486.88 282.715C487.29 283.057 487.751 283.228 488.264 283.228C488.782 283.228 489.243 283.057 489.648 282.715C490.059 282.373 490.376 281.905 490.601 281.309C490.83 280.708 490.945 280.042 490.945 279.31C490.945 278.562 490.83 277.891 490.601 277.295C490.376 276.7 490.061 276.231 489.656 275.889C489.25 275.542 488.787 275.369 488.264 275.369ZM506.846 275.061C506.846 275.765 506.577 276.402 506.04 276.973C505.508 277.539 504.863 278.003 504.106 278.365C503.35 278.726 502.612 278.98 501.895 279.126L501.675 278.738C502.3 278.631 502.983 278.406 503.726 278.064C504.468 277.718 505.103 277.286 505.63 276.768C506.162 276.246 506.428 275.677 506.428 275.061V274.219H506.846V275.061ZM506.897 275.061C506.897 275.657 507.166 276.219 507.703 276.746C508.24 277.268 508.882 277.706 509.629 278.057C510.376 278.404 511.05 278.631 511.65 278.738L511.445 279.126C510.747 278.98 510.015 278.721 509.248 278.35C508.481 277.979 507.83 277.51 507.292 276.944C506.76 276.372 506.494 275.745 506.494 275.061V274.219H506.897V275.061ZM512.5 281.023H500.847V280.599H512.5V281.023ZM506.926 284.034H506.45V280.84H506.926V284.034ZM511.189 286.275H502.458V285.843H511.189V286.275ZM502.935 285.989H502.458V282.649H502.935V285.989ZM523.647 283.389H523.171V273.89H523.647V283.389ZM525.735 278.518H523.442V278.072H525.735V278.518ZM520.22 274.915C520.225 275.926 519.971 276.873 519.458 277.757C518.95 278.636 518.24 279.41 517.327 280.079C516.418 280.747 515.364 281.292 514.163 281.712L513.965 281.28C515.093 280.894 516.091 280.393 516.96 279.778C517.83 279.158 518.508 278.445 518.997 277.64C519.485 276.829 519.729 275.96 519.729 275.032V274.915H520.22ZM519.919 275.347H514.441V274.915H519.919V275.347ZM524.343 286.275H515.942V285.843H524.343V286.275ZM516.404 285.953H515.942V282.422H516.404V285.953ZM530.986 274.908C531.646 274.908 532.227 275.025 532.729 275.259C533.232 275.494 533.623 275.826 533.901 276.255C534.18 276.685 534.319 277.185 534.319 277.757C534.319 278.318 534.18 278.816 533.901 279.251C533.623 279.681 533.232 280.015 532.729 280.254C532.227 280.489 531.646 280.606 530.986 280.606C530.332 280.606 529.751 280.489 529.243 280.254C528.74 280.015 528.347 279.681 528.064 279.251C527.786 278.816 527.646 278.318 527.646 277.757C527.646 277.185 527.786 276.685 528.064 276.255C528.347 275.826 528.74 275.494 529.243 275.259C529.751 275.025 530.332 274.908 530.986 274.908ZM530.986 275.332C530.439 275.332 529.946 275.44 529.507 275.655C529.067 275.865 528.723 276.153 528.474 276.519C528.23 276.885 528.108 277.298 528.108 277.757C528.108 278.206 528.23 278.616 528.474 278.987C528.723 279.353 529.067 279.644 529.507 279.859C529.946 280.074 530.439 280.181 530.986 280.181C531.538 280.181 532.031 280.074 532.466 279.859C532.9 279.644 533.242 279.353 533.491 278.987C533.745 278.616 533.872 278.206 533.872 277.757C533.872 277.298 533.745 276.885 533.491 276.519C533.242 276.153 532.9 275.865 532.466 275.655C532.031 275.44 531.538 275.332 530.986 275.332ZM536.985 286.634H536.509V273.89H536.985V286.634ZM526.877 283.155C528.074 283.155 529.094 283.147 529.939 283.133C530.789 283.113 531.711 283.072 532.708 283.008C533.704 282.94 534.646 282.837 535.535 282.701L535.601 283.067C534.673 283.233 533.708 283.357 532.708 283.44C531.711 283.523 530.784 283.575 529.924 283.594C529.07 283.614 528.091 283.623 526.987 283.623L526.877 283.155ZM552.93 281.228H552.454V273.89H552.93V281.228ZM555.017 277.749H552.805V277.347H555.017V277.749ZM549.531 274.805C549.531 275.806 549.282 276.727 548.784 277.566C548.286 278.401 547.581 279.129 546.667 279.749C545.754 280.364 544.673 280.848 543.423 281.199L543.24 280.796C544.426 280.45 545.452 279.993 546.316 279.427C547.185 278.86 547.856 278.194 548.33 277.427C548.809 276.661 549.048 275.823 549.048 274.915V274.805H549.531ZM549.216 275.237H543.752V274.805H549.216V275.237ZM552.93 286.407H545.1V281.917H552.93V286.407ZM545.576 285.975H552.439V282.356H545.576V285.975ZM566.187 277.859H562.825V277.427H566.187V277.859ZM566.443 281.507H565.967V273.89H566.443V281.507ZM562.349 282.005C563.208 282.005 563.948 282.095 564.568 282.276C565.188 282.452 565.662 282.713 565.989 283.06C566.321 283.401 566.487 283.814 566.487 284.297C566.487 284.771 566.321 285.181 565.989 285.528C565.662 285.87 565.188 286.128 564.568 286.304C563.948 286.485 563.208 286.578 562.349 286.582C561.489 286.578 560.75 286.485 560.129 286.304C559.509 286.128 559.033 285.87 558.701 285.528C558.369 285.181 558.203 284.771 558.203 284.297C558.203 283.814 558.369 283.401 558.701 283.06C559.033 282.713 559.509 282.452 560.129 282.276C560.75 282.095 561.489 282.005 562.349 282.005ZM562.349 282.415C561.621 282.415 560.977 282.493 560.415 282.649C559.858 282.801 559.426 283.018 559.119 283.301C558.811 283.584 558.657 283.916 558.657 284.297C558.657 284.664 558.811 284.988 559.119 285.271C559.426 285.55 559.858 285.765 560.415 285.916C560.977 286.072 561.621 286.15 562.349 286.15C563.076 286.15 563.718 286.072 564.275 285.916C564.836 285.765 565.271 285.55 565.579 285.271C565.886 284.988 566.04 284.664 566.04 284.297C566.04 283.916 565.886 283.584 565.579 283.301C565.271 283.018 564.836 282.801 564.275 282.649C563.718 282.493 563.076 282.415 562.349 282.415ZM560.071 276.468C560.071 277.181 559.905 277.854 559.573 278.489C559.241 279.119 558.804 279.671 558.262 280.144C557.725 280.618 557.139 280.992 556.504 281.265L556.255 280.862C556.831 280.638 557.38 280.306 557.903 279.866C558.43 279.422 558.857 278.904 559.185 278.313C559.512 277.723 559.675 277.107 559.675 276.468V275.186H560.071V276.468ZM560.129 276.453C560.129 277.024 560.283 277.581 560.591 278.123C560.903 278.66 561.316 279.134 561.829 279.544C562.346 279.954 562.893 280.264 563.469 280.474L563.191 280.877C562.581 280.623 562.009 280.274 561.477 279.83C560.95 279.385 560.525 278.872 560.203 278.291C559.88 277.706 559.719 277.093 559.719 276.453V275.186H560.129V276.453ZM563.279 275.428H556.475V274.996H563.279V275.428ZM574.822 274.153C575.735 274.153 576.519 274.239 577.173 274.41C577.832 274.581 578.333 274.834 578.674 275.171C579.021 275.508 579.194 275.916 579.194 276.394C579.194 276.873 579.021 277.281 578.674 277.618C578.333 277.955 577.832 278.208 577.173 278.379C576.519 278.55 575.735 278.638 574.822 278.643C573.909 278.638 573.125 278.55 572.471 278.379C571.816 278.208 571.316 277.955 570.969 277.618C570.623 277.281 570.449 276.873 570.449 276.394C570.449 275.916 570.623 275.508 570.969 275.171C571.316 274.834 571.816 274.581 572.471 274.41C573.125 274.239 573.909 274.153 574.822 274.153ZM574.822 274.571C574.05 274.561 573.369 274.632 572.778 274.783C572.188 274.93 571.731 275.142 571.409 275.42C571.086 275.694 570.925 276.018 570.925 276.394C570.925 276.761 571.086 277.083 571.409 277.361C571.736 277.635 572.192 277.85 572.778 278.006C573.364 278.157 574.045 278.233 574.822 278.233C575.598 278.233 576.282 278.157 576.873 278.006C577.468 277.85 577.927 277.635 578.25 277.361C578.572 277.083 578.733 276.761 578.733 276.394C578.733 276.018 578.569 275.694 578.242 275.42C577.92 275.142 577.463 274.93 576.873 274.783C576.282 274.632 575.598 274.561 574.822 274.571ZM580.63 280.181H569.036V279.764H580.63V280.181ZM579.055 284.092H571.021V286.084H570.559V283.675H578.608V282.071H570.522V281.646H579.055V284.092ZM579.502 286.421H570.559V285.982H579.502V286.421ZM595.71 286.626H595.256V273.89H595.71V286.626ZM591.968 275.325C591.968 276.492 591.741 277.618 591.287 278.702C590.837 279.781 590.159 280.774 589.25 281.683C588.342 282.591 587.231 283.367 585.918 284.012L585.64 283.602C586.875 283.006 587.932 282.281 588.811 281.426C589.69 280.572 590.361 279.629 590.825 278.599C591.289 277.564 591.521 276.485 591.521 275.362V275.325H591.968ZM591.631 275.757H586.138V275.325H591.631V275.757ZM609.956 281.529H598.303V281.067H609.956V281.529ZM608.367 277.01H600.332V279.075H599.878V276.578H607.913V274.732H599.827V274.3H608.367V277.01ZM608.682 279.31H599.878V278.87H608.682V279.31ZM604.353 281.214H603.892V279.141H604.353V281.214ZM608.44 286.429H607.964V283.184H599.614V282.759H608.44V286.429ZM617.859 276.775H611.252V276.343H617.859V276.775ZM614.541 277.903C615.063 277.903 615.527 278.023 615.933 278.262C616.343 278.497 616.663 278.826 616.892 279.251C617.126 279.676 617.244 280.154 617.244 280.686C617.244 281.224 617.126 281.705 616.892 282.129C616.663 282.554 616.343 282.884 615.933 283.118C615.527 283.348 615.063 283.462 614.541 283.462C614.028 283.462 613.564 283.348 613.149 283.118C612.739 282.884 612.419 282.554 612.19 282.129C611.965 281.7 611.853 281.219 611.853 280.686C611.853 280.154 611.965 279.676 612.19 279.251C612.419 278.826 612.739 278.497 613.149 278.262C613.564 278.023 614.028 277.903 614.541 277.903ZM614.541 278.35C614.121 278.35 613.738 278.455 613.391 278.665C613.049 278.87 612.781 279.151 612.585 279.507C612.395 279.864 612.3 280.257 612.3 280.686C612.3 281.111 612.395 281.504 612.585 281.866C612.781 282.222 613.049 282.505 613.391 282.715C613.738 282.92 614.121 283.023 614.541 283.023C614.966 283.023 615.349 282.92 615.691 282.715C616.038 282.505 616.309 282.222 616.504 281.866C616.704 281.504 616.804 281.111 616.804 280.686C616.804 280.257 616.704 279.864 616.504 279.507C616.309 279.151 616.038 278.87 615.691 278.665C615.349 278.455 614.966 278.35 614.541 278.35ZM621.975 286.626H621.506V273.89H621.975V286.626ZM621.675 279.881H618.914V279.434H621.675V279.881ZM619.163 285.923H618.708V274.241H619.163V285.923ZM614.783 276.585H614.307V274.3H614.783V276.585ZM627.864 284.598H627.402V280.525H627.864V284.598ZM632.705 284.598H632.236V280.525H632.705V284.598ZM635.906 284.839H624.246V284.385H635.906V284.839ZM630.032 274.886C630.916 274.886 631.699 275.015 632.383 275.274C633.071 275.528 633.606 275.892 633.987 276.365C634.368 276.834 634.558 277.386 634.558 278.02C634.558 278.631 634.368 279.175 633.987 279.654C633.606 280.127 633.071 280.491 632.383 280.745C631.699 280.994 630.916 281.119 630.032 281.119C629.153 281.119 628.369 280.994 627.681 280.745C626.997 280.491 626.465 280.127 626.084 279.654C625.703 279.175 625.513 278.631 625.513 278.02C625.513 277.386 625.703 276.834 626.084 276.365C626.465 275.892 626.997 275.528 627.681 275.274C628.369 275.015 629.153 274.886 630.032 274.886ZM630.032 275.303C629.26 275.303 628.562 275.42 627.937 275.655C627.312 275.884 626.819 276.206 626.458 276.622C626.101 277.032 625.923 277.498 625.923 278.02C625.923 278.528 626.104 278.99 626.465 279.405C626.826 279.815 627.317 280.137 627.937 280.372C628.562 280.606 629.26 280.723 630.032 280.723C630.808 280.723 631.506 280.606 632.126 280.372C632.751 280.137 633.245 279.815 633.606 279.405C633.967 278.99 634.148 278.528 634.148 278.02C634.148 277.498 633.967 277.032 633.606 276.622C633.25 276.206 632.759 275.884 632.134 275.655C631.509 275.42 630.808 275.303 630.032 275.303ZM638.271 285.645C638.193 285.645 638.118 285.623 638.044 285.579C637.971 285.535 637.913 285.479 637.869 285.411C637.83 285.342 637.81 285.267 637.81 285.184C637.81 285.101 637.83 285.022 637.869 284.949C637.913 284.876 637.971 284.82 638.044 284.781C638.118 284.737 638.196 284.715 638.279 284.715C638.362 284.715 638.438 284.737 638.506 284.781C638.579 284.825 638.635 284.883 638.674 284.956C638.713 285.025 638.733 285.101 638.733 285.184C638.733 285.267 638.713 285.342 638.674 285.411C638.635 285.479 638.579 285.535 638.506 285.579C638.433 285.623 638.354 285.645 638.271 285.645ZM455.474 299.228H454.998V291.89H455.474V299.228ZM457.561 295.749H455.349V295.347H457.561V295.749ZM452.075 292.805C452.075 293.806 451.826 294.727 451.328 295.566C450.83 296.401 450.125 297.129 449.211 297.749C448.298 298.364 447.217 298.848 445.967 299.199L445.784 298.796C446.97 298.45 447.996 297.993 448.86 297.427C449.729 296.86 450.4 296.194 450.874 295.427C451.353 294.661 451.592 293.823 451.592 292.915V292.805H452.075ZM451.76 293.237H446.296V292.805H451.76V293.237ZM455.474 304.407H447.644V299.917H455.474V304.407ZM448.12 303.975H454.983V300.356H448.12V303.975ZM468.73 295.859H465.369V295.427H468.73V295.859ZM468.987 299.507H468.511V291.89H468.987V299.507ZM464.893 300.005C465.752 300.005 466.492 300.095 467.112 300.276C467.732 300.452 468.206 300.713 468.533 301.06C468.865 301.401 469.031 301.814 469.031 302.297C469.031 302.771 468.865 303.181 468.533 303.528C468.206 303.87 467.732 304.128 467.112 304.304C466.492 304.485 465.752 304.578 464.893 304.582C464.033 304.578 463.293 304.485 462.673 304.304C462.053 304.128 461.577 303.87 461.245 303.528C460.913 303.181 460.747 302.771 460.747 302.297C460.747 301.814 460.913 301.401 461.245 301.06C461.577 300.713 462.053 300.452 462.673 300.276C463.293 300.095 464.033 300.005 464.893 300.005ZM464.893 300.415C464.165 300.415 463.521 300.493 462.959 300.649C462.402 300.801 461.97 301.018 461.663 301.301C461.355 301.584 461.201 301.916 461.201 302.297C461.201 302.664 461.355 302.988 461.663 303.271C461.97 303.55 462.402 303.765 462.959 303.916C463.521 304.072 464.165 304.15 464.893 304.15C465.62 304.15 466.262 304.072 466.819 303.916C467.38 303.765 467.815 303.55 468.123 303.271C468.43 302.988 468.584 302.664 468.584 302.297C468.584 301.916 468.43 301.584 468.123 301.301C467.815 301.018 467.38 300.801 466.819 300.649C466.262 300.493 465.62 300.415 464.893 300.415ZM462.615 294.468C462.615 295.181 462.449 295.854 462.117 296.489C461.785 297.119 461.348 297.671 460.806 298.144C460.269 298.618 459.683 298.992 459.048 299.265L458.799 298.862C459.375 298.638 459.924 298.306 460.447 297.866C460.974 297.422 461.401 296.904 461.729 296.313C462.056 295.723 462.219 295.107 462.219 294.468V293.186H462.615V294.468ZM462.673 294.453C462.673 295.024 462.827 295.581 463.135 296.123C463.447 296.66 463.86 297.134 464.373 297.544C464.89 297.954 465.437 298.264 466.013 298.474L465.735 298.877C465.125 298.623 464.553 298.274 464.021 297.83C463.494 297.385 463.069 296.872 462.747 296.291C462.424 295.706 462.263 295.093 462.263 294.453V293.186H462.673V294.453ZM465.823 293.428H459.019V292.996H465.823V293.428ZM485.291 304.626H484.836V291.89H485.291V304.626ZM481.548 293.325C481.548 294.492 481.321 295.618 480.867 296.702C480.417 297.781 479.739 298.774 478.831 299.683C477.922 300.591 476.812 301.367 475.498 302.012L475.22 301.602C476.455 301.006 477.512 300.281 478.391 299.426C479.27 298.572 479.941 297.629 480.405 296.599C480.869 295.564 481.101 294.485 481.101 293.362V293.325H481.548ZM481.211 293.757H475.718V293.325H481.211V293.757ZM499.536 299.529H487.883V299.067H499.536V299.529ZM497.947 295.01H489.912V297.075H489.458V294.578H497.493V292.732H489.407V292.3H497.947V295.01ZM498.262 297.31H489.458V296.87H498.262V297.31ZM493.933 299.214H493.472V297.141H493.933V299.214ZM498.02 304.429H497.544V301.184H489.194V300.759H498.02V304.429ZM507.571 293.86H501.484V293.428H507.571V293.86ZM504.333 301.36H503.865V297.053H504.333V301.36ZM507.82 293.743C507.81 294.324 507.798 294.805 507.783 295.185C507.773 295.566 507.739 296.096 507.681 296.775C507.622 297.449 507.534 298.184 507.417 298.979L506.926 298.921C507.112 297.812 507.227 296.848 507.271 296.028C507.319 295.207 507.344 294.446 507.344 293.743V293.428H507.82V293.743ZM510.427 304.626H509.98V291.89H510.427V304.626ZM512.837 297.881H510.339V297.427H512.837V297.881ZM500.715 301.155C502.317 301.145 503.796 301.113 505.154 301.06C506.516 301.006 507.793 300.906 508.984 300.759L509.021 301.14C507.795 301.316 506.499 301.438 505.132 301.506C503.77 301.575 502.334 301.614 500.825 301.623L500.715 301.155ZM527.002 301.118H526.526V291.868H527.002V301.118ZM529.111 296.409H526.812V295.984H529.111V296.409ZM518.821 298.254C520.134 298.254 521.228 298.223 522.102 298.159C522.981 298.091 523.879 297.964 524.797 297.778L524.878 298.225C523.926 298.406 523.003 298.53 522.109 298.599C521.216 298.667 520.12 298.706 518.821 298.716H517.891V298.254H518.821ZM523.486 293.516H518.352V298.496H517.891V293.069H523.486V293.516ZM527.698 304.275H519.304V303.843H527.698V304.275ZM519.758 303.96H519.304V300.239H519.758V303.96ZM534.37 292.585C534.99 292.585 535.542 292.69 536.025 292.9C536.509 293.105 536.882 293.398 537.146 293.779C537.415 294.16 537.549 294.6 537.549 295.098C537.549 295.591 537.415 296.028 537.146 296.409C536.882 296.789 536.509 297.087 536.025 297.302C535.542 297.512 534.99 297.617 534.37 297.617C533.76 297.617 533.215 297.512 532.737 297.302C532.258 297.087 531.882 296.789 531.609 296.409C531.34 296.028 531.206 295.591 531.206 295.098C531.206 294.6 531.34 294.16 531.609 293.779C531.877 293.398 532.251 293.105 532.729 292.9C533.213 292.69 533.76 292.585 534.37 292.585ZM534.37 293.003C533.862 293.003 533.401 293.098 532.986 293.289C532.576 293.474 532.256 293.726 532.026 294.043C531.797 294.36 531.682 294.712 531.682 295.098C531.682 295.488 531.797 295.842 532.026 296.16C532.256 296.477 532.576 296.728 532.986 296.914C533.401 297.095 533.862 297.185 534.37 297.185C534.893 297.185 535.361 297.095 535.776 296.914C536.191 296.728 536.514 296.477 536.743 296.16C536.978 295.842 537.095 295.488 537.095 295.098C537.095 294.712 536.978 294.36 536.743 294.043C536.514 293.726 536.191 293.474 535.776 293.289C535.361 293.098 534.893 293.003 534.37 293.003ZM534.685 304.224H534.224V299.17H534.685V304.224ZM540.42 304.641H539.966V291.904H540.42V304.641ZM530.063 299.001C531.709 299.001 533.259 298.97 534.714 298.906C536.174 298.843 537.556 298.718 538.86 298.533L538.896 298.914C537.671 299.123 536.394 299.268 535.066 299.346C533.743 299.424 532.319 299.468 530.796 299.477C530.581 299.477 530.366 299.477 530.151 299.477L530.063 299.001ZM553.179 294.351H549.033V293.918H553.179V294.351ZM553.179 296.665H549.033V296.226H553.179V296.665ZM553.457 298.657H553.003V291.89H553.457V298.657ZM553.457 302.012H545.928V304.333H545.481V301.587H553.003V299.836H545.43V299.397H553.457V302.012ZM554.065 304.414H545.481V303.989H554.065V304.414ZM544.316 294.717H548.879V292.534H549.333V297.976H543.84V292.534H544.316V294.717ZM548.879 297.551V295.156H544.316V297.551H548.879ZM571.064 299.258H559.412V298.818H571.064V299.258ZM565.491 302.187H565.015V298.987H565.491V302.187ZM569.753 304.275H561.023V303.843H569.753V304.275ZM561.492 303.938H561.023V300.854H561.492V303.938ZM561.506 294.248H568.992V292.292H569.468V297.244H561.03V292.292H561.506V294.248ZM568.992 296.804V294.658H561.506V296.804H568.992ZM582.512 295.303H579.019V294.863H582.512V295.303ZM576.265 294.006C576.265 294.768 576.106 295.478 575.789 296.138C575.471 296.797 575.049 297.368 574.521 297.852C573.999 298.33 573.416 298.711 572.771 298.994L572.529 298.599C573.125 298.359 573.677 298.015 574.185 297.566C574.697 297.112 575.107 296.58 575.415 295.969C575.728 295.354 575.884 294.7 575.884 294.006V292.519H576.265V294.006ZM576.323 294.014C576.323 294.624 576.484 295.212 576.807 295.779C577.129 296.345 577.549 296.846 578.066 297.28C578.589 297.71 579.138 298.037 579.714 298.262L579.436 298.65C578.816 298.396 578.24 298.037 577.708 297.573C577.175 297.104 576.746 296.562 576.418 295.947C576.091 295.332 575.928 294.687 575.928 294.014V292.519H576.323V294.014ZM582.761 304.626H582.285V300.605H574.39V300.188H582.761V304.626ZM582.761 299.36H582.285V291.89H582.761V299.36ZM591.14 292.893C592.014 292.893 592.793 293.032 593.477 293.31C594.165 293.584 594.702 293.975 595.088 294.482C595.474 294.985 595.667 295.566 595.667 296.226C595.667 296.88 595.474 297.461 595.088 297.969C594.702 298.472 594.165 298.862 593.477 299.141C592.793 299.419 592.014 299.558 591.14 299.558C590.271 299.558 589.495 299.419 588.811 299.141C588.127 298.862 587.59 298.472 587.2 297.969C586.814 297.461 586.621 296.88 586.621 296.226C586.621 295.566 586.814 294.985 587.2 294.482C587.59 293.975 588.127 293.584 588.811 293.31C589.495 293.032 590.271 292.893 591.14 292.893ZM591.14 293.281C590.378 293.281 589.683 293.411 589.053 293.669C588.428 293.923 587.935 294.275 587.573 294.724C587.212 295.168 587.031 295.669 587.031 296.226C587.031 296.777 587.212 297.278 587.573 297.727C587.935 298.176 588.428 298.528 589.053 298.782C589.683 299.036 590.378 299.163 591.14 299.163C591.907 299.163 592.603 299.036 593.228 298.782C593.853 298.528 594.346 298.176 594.707 297.727C595.073 297.278 595.256 296.777 595.256 296.226C595.256 295.669 595.073 295.168 594.707 294.724C594.346 294.275 593.853 293.923 593.228 293.669C592.603 293.411 591.907 293.281 591.14 293.281ZM597.014 302.781H585.354V302.327H597.014V302.781ZM609.978 302.869H598.318V302.444H609.978V302.869ZM604.338 302.649H603.877V299.39H604.338V302.649ZM608.389 296.431H600.361V299.397H599.9V295.998H607.927V293.406H599.841V292.959H608.389V296.431ZM608.696 299.565H599.9V299.148H608.696V299.565ZM449.241 310.461C449.861 310.461 450.413 310.576 450.896 310.805C451.379 311.03 451.758 311.35 452.031 311.765C452.305 312.18 452.441 312.658 452.441 313.2C452.441 313.732 452.305 314.206 452.031 314.621C451.758 315.031 451.379 315.349 450.896 315.573C450.413 315.798 449.861 315.91 449.241 315.91C448.63 315.91 448.081 315.798 447.593 315.573C447.104 315.349 446.724 315.031 446.45 314.621C446.182 314.206 446.047 313.732 446.047 313.2C446.047 312.668 446.184 312.192 446.458 311.772C446.736 311.352 447.117 311.03 447.6 310.805C448.083 310.576 448.63 310.461 449.241 310.461ZM449.241 310.871C448.728 310.871 448.264 310.976 447.849 311.186C447.434 311.391 447.107 311.672 446.868 312.028C446.633 312.38 446.516 312.77 446.516 313.2C446.516 313.62 446.633 314.008 446.868 314.365C447.107 314.716 447.434 314.995 447.849 315.2C448.264 315.405 448.728 315.507 449.241 315.507C449.763 315.507 450.232 315.405 450.647 315.2C451.062 314.995 451.387 314.716 451.621 314.365C451.86 314.008 451.98 313.62 451.98 313.2C451.98 312.77 451.86 312.38 451.621 312.028C451.387 311.672 451.062 311.391 450.647 311.186C450.232 310.976 449.763 310.871 449.241 310.871ZM456.03 316.584H455.554V309.89H456.03V316.584ZM456.03 319.968H448.486V322.289H448.04V319.558H455.554V317.734H447.988V317.302H456.03V319.968ZM456.587 322.414H448.04V321.989H456.587V322.414ZM462.483 311.999C462.483 312.761 462.319 313.474 461.992 314.138C461.67 314.797 461.243 315.368 460.71 315.852C460.178 316.33 459.592 316.711 458.953 316.994L458.704 316.606C459.299 316.362 459.851 316.013 460.359 315.559C460.872 315.104 461.282 314.572 461.589 313.962C461.902 313.352 462.058 312.697 462.058 311.999V310.519H462.483V311.999ZM462.498 312.014C462.498 312.624 462.659 313.215 462.981 313.786C463.303 314.357 463.726 314.855 464.248 315.28C464.775 315.705 465.327 316.03 465.903 316.254L465.61 316.657C465 316.393 464.426 316.03 463.889 315.566C463.352 315.102 462.92 314.562 462.593 313.947C462.266 313.327 462.102 312.683 462.102 312.014V310.519H462.498V312.014ZM468.438 317.814H467.961V309.89H468.438V317.814ZM470.525 313.969H468.313V313.537H470.525V313.969ZM464.446 318.217C465.3 318.217 466.033 318.303 466.643 318.474C467.258 318.64 467.727 318.886 468.049 319.213C468.372 319.54 468.533 319.936 468.533 320.4C468.533 320.859 468.372 321.249 468.049 321.572C467.727 321.894 467.261 322.138 466.65 322.304C466.04 322.475 465.305 322.56 464.446 322.56C463.591 322.56 462.856 322.475 462.241 322.304C461.631 322.138 461.165 321.894 460.842 321.572C460.52 321.249 460.359 320.859 460.359 320.4C460.359 319.936 460.52 319.54 460.842 319.213C461.165 318.886 461.631 318.64 462.241 318.474C462.856 318.303 463.591 318.217 464.446 318.217ZM464.446 318.642C463.728 318.642 463.093 318.713 462.542 318.854C461.99 318.996 461.56 319.201 461.252 319.47C460.95 319.738 460.798 320.048 460.798 320.4C460.798 320.747 460.95 321.052 461.252 321.315C461.56 321.579 461.99 321.784 462.542 321.931C463.093 322.077 463.728 322.155 464.446 322.165C465.178 322.155 465.818 322.077 466.365 321.931C466.912 321.784 467.336 321.579 467.639 321.315C467.942 321.052 468.093 320.747 468.093 320.4C468.093 320.048 467.942 319.738 467.639 319.47C467.336 319.201 466.909 318.996 466.357 318.854C465.811 318.713 465.173 318.642 464.446 318.642ZM486.594 316.921H474.934V316.489H486.594V316.921ZM480.977 316.716H480.508V314.247H480.977V316.716ZM480.925 310.834C480.925 311.528 480.659 312.153 480.127 312.709C479.595 313.266 478.948 313.725 478.186 314.086C477.424 314.448 476.68 314.702 475.952 314.848L475.747 314.445C476.372 314.338 477.058 314.118 477.805 313.786C478.552 313.454 479.189 313.032 479.717 312.519C480.249 312.001 480.515 311.44 480.515 310.834V310.073H480.925V310.834ZM480.969 310.834C480.969 311.425 481.235 311.977 481.768 312.49C482.305 313.002 482.947 313.43 483.694 313.771C484.446 314.113 485.127 314.338 485.737 314.445L485.525 314.848C484.827 314.702 484.092 314.445 483.32 314.079C482.554 313.708 481.902 313.242 481.365 312.68C480.833 312.119 480.566 311.503 480.566 310.834V310.073H480.969V310.834ZM485.049 322.626H484.587V318.935H476.23V318.518H485.049V322.626ZM495.947 315.559H493.193V315.112H495.947V315.559ZM498.701 322.626H498.218V309.89H498.701V322.626ZM496.211 321.923H495.75V310.234H496.211V321.923ZM490.791 311.142C491.338 311.142 491.812 311.315 492.212 311.662C492.617 312.004 492.93 312.495 493.149 313.134C493.374 313.774 493.486 314.518 493.486 315.368C493.486 316.208 493.374 316.948 493.149 317.587C492.93 318.227 492.617 318.723 492.212 319.074C491.812 319.421 491.338 319.594 490.791 319.594C490.259 319.594 489.788 319.421 489.377 319.074C488.972 318.723 488.66 318.227 488.44 317.587C488.225 316.948 488.118 316.208 488.118 315.368C488.118 314.518 488.225 313.774 488.44 313.134C488.66 312.495 488.972 312.004 489.377 311.662C489.788 311.315 490.259 311.142 490.791 311.142ZM490.791 311.552C490.361 311.552 489.976 311.718 489.634 312.05C489.297 312.377 489.038 312.831 488.857 313.413C488.677 313.989 488.586 314.641 488.586 315.368C488.586 316.086 488.677 316.735 488.857 317.316C489.038 317.893 489.297 318.347 489.634 318.679C489.976 319.006 490.361 319.169 490.791 319.169C491.235 319.169 491.626 319.006 491.963 318.679C492.3 318.347 492.559 317.893 492.739 317.316C492.925 316.735 493.018 316.086 493.018 315.368C493.018 314.641 492.925 313.989 492.739 313.413C492.559 312.831 492.3 312.377 491.963 312.05C491.626 311.718 491.235 311.552 490.791 311.552ZM510.984 314.973H507.212V314.57H510.984V314.973ZM504.927 313.852C504.927 314.633 504.749 315.419 504.392 316.21C504.041 317.001 503.586 317.714 503.03 318.349C502.473 318.979 501.912 319.462 501.345 319.799L501.023 319.426C501.565 319.128 502.109 318.681 502.656 318.085C503.203 317.485 503.652 316.811 504.004 316.064C504.355 315.312 504.531 314.575 504.531 313.852V311.12H504.927V313.852ZM505 313.852C505 314.55 505.181 315.256 505.542 315.969C505.908 316.682 506.37 317.321 506.926 317.888C507.488 318.454 508.044 318.874 508.596 319.147L508.303 319.565C507.708 319.238 507.126 318.771 506.56 318.166C505.994 317.556 505.525 316.872 505.154 316.115C504.788 315.358 504.604 314.604 504.604 313.852V311.12H505V313.852ZM511.211 322.634H510.764V309.89H511.211V322.634ZM523.442 319.243H517.817V311.245H523.442V319.243ZM518.264 318.818H522.996V311.662H518.264V318.818ZM526.863 322.626H526.372V309.89H526.863V322.626ZM529.214 315.705H526.724V315.266H529.214V315.705ZM535.93 310.219C536.833 310.219 537.612 310.312 538.267 310.497C538.926 310.678 539.429 310.944 539.775 311.296C540.127 311.647 540.303 312.07 540.303 312.563C540.303 313.046 540.127 313.461 539.775 313.808C539.429 314.15 538.926 314.414 538.267 314.599C537.612 314.78 536.833 314.87 535.93 314.87C535.022 314.87 534.241 314.78 533.586 314.599C532.932 314.414 532.429 314.15 532.078 313.808C531.731 313.461 531.558 313.046 531.558 312.563C531.558 312.07 531.731 311.647 532.078 311.296C532.429 310.944 532.935 310.678 533.594 310.497C534.253 310.312 535.032 310.219 535.93 310.219ZM535.93 310.637C535.159 310.637 534.478 310.717 533.887 310.878C533.296 311.035 532.837 311.257 532.51 311.545C532.188 311.833 532.026 312.172 532.026 312.563C532.026 312.934 532.19 313.264 532.517 313.552C532.844 313.835 533.301 314.055 533.887 314.211C534.478 314.362 535.159 314.44 535.93 314.445C536.707 314.44 537.39 314.362 537.981 314.211C538.572 314.055 539.028 313.835 539.351 313.552C539.678 313.264 539.841 312.934 539.841 312.563C539.841 312.172 539.678 311.833 539.351 311.545C539.028 311.257 538.572 311.035 537.981 310.878C537.39 310.717 536.707 310.637 535.93 310.637ZM540.288 322.414H531.646V318.371H540.288V322.414ZM532.107 321.989H539.827V318.803H532.107V321.989ZM541.738 316.767H530.144V316.328H541.738V316.767ZM548.894 310.153C549.807 310.153 550.591 310.239 551.245 310.41C551.904 310.581 552.405 310.834 552.747 311.171C553.093 311.508 553.267 311.916 553.267 312.394C553.267 312.873 553.093 313.281 552.747 313.618C552.405 313.955 551.904 314.208 551.245 314.379C550.591 314.55 549.807 314.638 548.894 314.643C547.981 314.638 547.197 314.55 546.543 314.379C545.889 314.208 545.388 313.955 545.042 313.618C544.695 313.281 544.521 312.873 544.521 312.394C544.521 311.916 544.695 311.508 545.042 311.171C545.388 310.834 545.889 310.581 546.543 310.41C547.197 310.239 547.981 310.153 548.894 310.153ZM548.894 310.571C548.123 310.561 547.441 310.632 546.851 310.783C546.26 310.93 545.803 311.142 545.481 311.42C545.159 311.694 544.998 312.018 544.998 312.394C544.998 312.761 545.159 313.083 545.481 313.361C545.808 313.635 546.265 313.85 546.851 314.006C547.437 314.157 548.118 314.233 548.894 314.233C549.67 314.233 550.354 314.157 550.945 314.006C551.541 313.85 552 313.635 552.322 313.361C552.644 313.083 552.805 312.761 552.805 312.394C552.805 312.018 552.642 311.694 552.314 311.42C551.992 311.142 551.536 310.93 550.945 310.783C550.354 310.632 549.67 310.561 548.894 310.571ZM554.702 316.181H543.108V315.764H554.702V316.181ZM553.127 320.092H545.093V322.084H544.631V319.675H552.681V318.071H544.595V317.646H553.127V320.092ZM553.574 322.421H544.631V321.982H553.574V322.421ZM562.905 312.453C562.905 313.093 562.776 313.725 562.517 314.35C562.263 314.97 561.909 315.527 561.455 316.02C561.001 316.513 560.493 316.901 559.932 317.185L559.639 316.833C560.176 316.569 560.664 316.208 561.104 315.749C561.543 315.29 561.885 314.77 562.129 314.189C562.378 313.608 562.502 313.029 562.502 312.453V312.094H562.905V312.453ZM562.957 312.453C562.957 312.99 563.083 313.532 563.337 314.079C563.596 314.626 563.945 315.117 564.385 315.551C564.829 315.986 565.32 316.318 565.857 316.547L565.564 316.943C564.998 316.674 564.485 316.306 564.026 315.837C563.567 315.368 563.208 314.841 562.949 314.255C562.69 313.664 562.561 313.063 562.561 312.453V312.094H562.957V312.453ZM565.601 312.343H559.792V311.926H565.601V312.343ZM562.957 312.028H562.502V310.168H562.957V312.028ZM570.112 317.976H569.658V309.904H570.112V317.976ZM569.9 314.086H567.08V313.669H569.9V314.086ZM567.344 317.419H566.86V310.153H567.344V317.419ZM566.04 318.247C566.909 318.242 567.654 318.325 568.274 318.496C568.894 318.666 569.368 318.913 569.695 319.235C570.022 319.558 570.186 319.946 570.186 320.4C570.186 320.854 570.022 321.245 569.695 321.572C569.368 321.894 568.894 322.138 568.274 322.304C567.654 322.475 566.909 322.56 566.04 322.56C565.176 322.56 564.431 322.475 563.806 322.304C563.186 322.138 562.712 321.894 562.385 321.572C562.063 321.245 561.902 320.854 561.902 320.4C561.902 319.946 562.063 319.558 562.385 319.235C562.712 318.913 563.186 318.666 563.806 318.496C564.431 318.325 565.176 318.242 566.04 318.247ZM566.04 318.679C565.312 318.674 564.668 318.742 564.106 318.884C563.55 319.025 563.118 319.228 562.81 319.492C562.502 319.755 562.349 320.058 562.349 320.4C562.349 320.747 562.5 321.052 562.803 321.315C563.11 321.579 563.542 321.782 564.099 321.923C564.656 322.065 565.303 322.136 566.04 322.136C566.782 322.136 567.429 322.065 567.981 321.923C568.533 321.782 568.96 321.579 569.263 321.315C569.57 321.052 569.724 320.747 569.724 320.4C569.724 320.058 569.57 319.755 569.263 319.492C568.96 319.228 568.53 319.025 567.974 318.884C567.417 318.742 566.772 318.674 566.04 318.679ZM578.784 311.325C578.784 312.487 578.572 313.603 578.147 314.672C577.727 315.742 577.073 316.735 576.184 317.653C575.295 318.566 574.177 319.343 572.83 319.982L572.551 319.587C573.826 318.991 574.895 318.264 575.759 317.404C576.624 316.545 577.268 315.602 577.693 314.577C578.123 313.547 578.337 312.475 578.337 311.362V311.325H578.784ZM578.513 311.757H573.049V311.325H578.513V311.757ZM582.739 322.604H582.285V309.868H582.739V322.604ZM582.498 314.035H578.337V313.603H582.498V314.035ZM582.344 317.382H578.191V316.95H582.344V317.382ZM597.014 320.847H585.354V320.414H597.014V320.847ZM591.375 320.62H590.913V317.016H591.375V320.62ZM587.346 313.486H595.007V310.878H595.469V317.28H586.87V310.878H587.346V313.486ZM595.007 316.84V313.925H587.346V316.84H595.007ZM606.199 315.178H603.379V314.724H606.199V315.178ZM601.768 313.925C601.768 314.697 601.624 315.461 601.335 316.218C601.052 316.975 600.669 317.656 600.186 318.261C599.707 318.862 599.189 319.331 598.633 319.667L598.267 319.301C598.813 318.998 599.321 318.561 599.79 317.99C600.264 317.419 600.642 316.777 600.925 316.064C601.213 315.346 601.357 314.633 601.357 313.925V311.193H601.768V313.925ZM601.804 313.918C601.804 314.562 601.941 315.224 602.214 315.903C602.493 316.577 602.864 317.194 603.328 317.756C603.792 318.312 604.294 318.74 604.836 319.038L604.514 319.389C603.958 319.062 603.442 318.605 602.969 318.019C602.495 317.434 602.114 316.782 601.826 316.064C601.543 315.341 601.401 314.626 601.401 313.918V311.193H601.804V313.918ZM609.121 322.626H608.638V309.89H609.121V322.626ZM606.484 321.923H606.038V310.234H606.484V321.923ZM614.9 320.598H614.438V316.525H614.9V320.598ZM619.741 320.598H619.272V316.525H619.741V320.598ZM622.942 320.839H611.282V320.385H622.942V320.839ZM617.068 310.886C617.952 310.886 618.735 311.015 619.419 311.274C620.107 311.528 620.642 311.892 621.023 312.365C621.404 312.834 621.594 313.386 621.594 314.02C621.594 314.631 621.404 315.175 621.023 315.654C620.642 316.127 620.107 316.491 619.419 316.745C618.735 316.994 617.952 317.119 617.068 317.119C616.189 317.119 615.405 316.994 614.717 316.745C614.033 316.491 613.501 316.127 613.12 315.654C612.739 315.175 612.549 314.631 612.549 314.02C612.549 313.386 612.739 312.834 613.12 312.365C613.501 311.892 614.033 311.528 614.717 311.274C615.405 311.015 616.189 310.886 617.068 310.886ZM617.068 311.303C616.296 311.303 615.598 311.42 614.973 311.655C614.348 311.884 613.855 312.206 613.494 312.622C613.137 313.032 612.959 313.498 612.959 314.02C612.959 314.528 613.14 314.99 613.501 315.405C613.862 315.815 614.353 316.137 614.973 316.372C615.598 316.606 616.296 316.723 617.068 316.723C617.844 316.723 618.542 316.606 619.163 316.372C619.788 316.137 620.281 315.815 620.642 315.405C621.003 314.99 621.184 314.528 621.184 314.02C621.184 313.498 621.003 313.032 620.642 312.622C620.286 312.206 619.795 311.884 619.17 311.655C618.545 311.42 617.844 311.303 617.068 311.303ZM625.308 321.645C625.229 321.645 625.154 321.623 625.081 321.579C625.007 321.535 624.949 321.479 624.905 321.411C624.866 321.342 624.846 321.267 624.846 321.184C624.846 321.101 624.866 321.022 624.905 320.949C624.949 320.876 625.007 320.82 625.081 320.781C625.154 320.737 625.232 320.715 625.315 320.715C625.398 320.715 625.474 320.737 625.542 320.781C625.615 320.825 625.671 320.883 625.71 320.956C625.75 321.025 625.769 321.101 625.769 321.184C625.769 321.267 625.75 321.342 625.71 321.411C625.671 321.479 625.615 321.535 625.542 321.579C625.469 321.623 625.391 321.645 625.308 321.645Z" fill="#E6FAEC"/>
<rect x="448.6" y="103.8" width="188.8" height="122.568" fill="#E6FAEC"/>
<line x1="448.6" y1="179.193" x2="637.4" y2="179.193" stroke="#227447" stroke-width="2.21184"/>
<line x1="448.6" y1="205.838" x2="637.4" y2="205.838" stroke="#227447" stroke-width="2.21184"/>
<rect x="615" y="153.4" width="22.4" height="25.6" fill="#227447"/>
<rect x="558.2" y="126.2" width="27.2" height="27.2" fill="white"/>
<rect x="473.4" y="179.8" width="27.2" height="25.6" fill="white"/>
<rect x="448.6" y="154.2" width="23.2" height="24.8" fill="#227447"/>
<rect x="530.2" y="154.2" width="26.4" height="24" fill="white"/>
<line x1="472.906" y1="103" x2="472.906" y2="226.329" stroke="#227447" stroke-width="2.21184"/>
<line x1="501.226" y1="103.761" x2="501.226" y2="226.329" stroke="#227447" stroke-width="2.21184"/>
<line x1="529.394" y1="103.761" x2="529.394" y2="226.329" stroke="#227447" stroke-width="2.21184"/>
<line x1="557.561" y1="103.761" x2="557.561" y2="226.329" stroke="#227447" stroke-width="2.21184"/>
<line x1="614.658" y1="103.761" x2="614.658" y2="226.329" stroke="#227447" stroke-width="2.21184"/>
<rect x="502.2" y="153.4" width="26.4" height="25.6" fill="#227447"/>
<rect x="586.907" y="205.013" width="27.4065" height="21.3161" fill="#227447"/>
<rect x="587" y="126.2" width="27.2" height="26.4" fill="#227447"/>
<rect x="530.2" y="179.8" width="26.4" height="27.2" fill="#227447"/>
<rect x="501.643" y="103.761" width="27.4065" height="22.0774" fill="#227447"/>
<rect x="473.475" y="205.774" width="26.6452" height="20.5548" fill="#227447"/>
<line x1="586.49" y1="103.761" x2="586.49" y2="226.329" stroke="#227447" stroke-width="2.21184"/>
<line x1="448.6" y1="126.664" x2="637.4" y2="126.664" stroke="#227447" stroke-width="2.21184"/>
<line x1="448.6" y1="153.309" x2="637.4" y2="153.309" stroke="#227447" stroke-width="2.21184"/>
<path d="M349.263 390.161C348.53 390.161 347.888 389.985 347.336 389.634C346.785 389.282 346.362 388.796 346.069 388.176C345.776 387.556 345.63 386.851 345.63 386.06C345.63 385.259 345.781 384.546 346.084 383.921C346.387 383.296 346.809 382.81 347.351 382.463C347.893 382.117 348.521 381.943 349.233 381.943C349.8 381.943 350.31 382.046 350.764 382.251C351.218 382.456 351.587 382.749 351.87 383.13C352.153 383.511 352.329 383.95 352.397 384.448H351.138C351.079 384.194 350.967 383.962 350.801 383.752C350.635 383.542 350.422 383.374 350.164 383.247C349.905 383.12 349.604 383.057 349.263 383.057C348.794 383.057 348.381 383.179 348.025 383.423C347.668 383.667 347.39 384.011 347.19 384.456C346.99 384.9 346.89 385.42 346.89 386.016C346.89 386.621 346.987 387.151 347.183 387.605C347.378 388.059 347.654 388.411 348.01 388.66C348.367 388.909 348.784 389.033 349.263 389.033C349.575 389.033 349.861 388.979 350.12 388.872C350.378 388.765 350.596 388.606 350.771 388.396C350.947 388.186 351.069 387.939 351.138 387.656H352.397C352.329 388.135 352.158 388.562 351.885 388.938C351.611 389.314 351.25 389.612 350.801 389.832C350.352 390.051 349.839 390.161 349.263 390.161ZM355.21 390H353.95V379.395H355.21V390ZM357.217 382.046H358.477V390H357.217V382.046ZM357.847 380.728C357.69 380.728 357.544 380.691 357.407 380.618C357.271 380.544 357.163 380.442 357.085 380.31C357.007 380.178 356.968 380.039 356.968 379.893C356.968 379.736 357.007 379.595 357.085 379.468C357.163 379.341 357.271 379.241 357.407 379.167C357.544 379.094 357.69 379.058 357.847 379.058C358.013 379.058 358.164 379.094 358.301 379.167C358.438 379.241 358.545 379.341 358.623 379.468C358.701 379.595 358.74 379.736 358.74 379.893C358.74 380.039 358.701 380.178 358.623 380.31C358.545 380.442 358.438 380.544 358.301 380.618C358.164 380.691 358.013 380.728 357.847 380.728ZM363.735 390.161C363.003 390.161 362.361 389.985 361.809 389.634C361.257 389.282 360.835 388.796 360.542 388.176C360.249 387.556 360.103 386.851 360.103 386.06C360.103 385.259 360.254 384.546 360.557 383.921C360.859 383.296 361.282 382.81 361.824 382.463C362.366 382.117 362.993 381.943 363.706 381.943C364.272 381.943 364.783 382.046 365.237 382.251C365.691 382.456 366.06 382.749 366.343 383.13C366.626 383.511 366.802 383.95 366.87 384.448H365.61C365.552 384.194 365.439 383.962 365.273 383.752C365.107 383.542 364.895 383.374 364.636 383.247C364.377 383.12 364.077 383.057 363.735 383.057C363.267 383.057 362.854 383.179 362.498 383.423C362.141 383.667 361.863 384.011 361.663 384.456C361.462 384.9 361.362 385.42 361.362 386.016C361.362 386.621 361.46 387.151 361.655 387.605C361.851 388.059 362.126 388.411 362.483 388.66C362.839 388.909 363.257 389.033 363.735 389.033C364.048 389.033 364.333 388.979 364.592 388.872C364.851 388.765 365.068 388.606 365.244 388.396C365.42 388.186 365.542 387.939 365.61 387.656H366.87C366.802 388.135 366.631 388.562 366.357 388.938C366.084 389.314 365.723 389.612 365.273 389.832C364.824 390.051 364.312 390.161 363.735 390.161ZM369.58 385.562H369.829L373.271 382.046H374.824L371.118 385.811H371.001L369.595 387.114L369.58 385.562ZM368.423 379.395H369.683V390H368.423V379.395ZM370.4 386.089L371.279 385.21L375.073 390H373.477L370.4 386.089ZM383.408 383.101H379.263V382.046H383.408V383.101ZM381.738 380.142V387.715C381.738 388.037 381.785 388.284 381.877 388.455C381.97 388.625 382.092 388.743 382.244 388.806C382.395 388.87 382.573 388.901 382.778 388.901C383.022 388.901 383.271 388.892 383.525 388.872V390.044C383.271 390.083 382.979 390.103 382.646 390.103C382.275 390.103 381.924 390.024 381.592 389.868C381.26 389.712 380.989 389.478 380.779 389.165C380.569 388.853 380.464 388.477 380.464 388.037V380.142H381.738ZM388.198 390.161C387.485 390.161 386.853 389.99 386.301 389.648C385.75 389.307 385.322 388.826 385.02 388.206C384.717 387.585 384.565 386.87 384.565 386.06C384.565 385.239 384.717 384.519 385.02 383.899C385.322 383.279 385.75 382.798 386.301 382.456C386.853 382.114 387.485 381.943 388.198 381.943C388.911 381.943 389.541 382.114 390.088 382.456C390.635 382.798 391.057 383.279 391.355 383.899C391.653 384.519 391.802 385.239 391.802 386.06C391.802 386.87 391.653 387.585 391.355 388.206C391.057 388.826 390.635 389.307 390.088 389.648C389.541 389.99 388.911 390.161 388.198 390.161ZM388.198 389.048C388.716 389.048 389.15 388.911 389.502 388.638C389.854 388.364 390.115 388.003 390.286 387.554C390.457 387.104 390.542 386.606 390.542 386.06C390.542 385.513 390.457 385.012 390.286 384.558C390.115 384.104 389.854 383.74 389.502 383.467C389.15 383.193 388.716 383.057 388.198 383.057C387.681 383.057 387.244 383.193 386.887 383.467C386.531 383.74 386.265 384.104 386.089 384.558C385.913 385.012 385.825 385.513 385.825 386.06C385.825 386.606 385.913 387.104 386.089 387.554C386.265 388.003 386.531 388.364 386.887 388.638C387.244 388.911 387.681 389.048 388.198 389.048ZM401.646 384.111C401.558 383.76 401.379 383.489 401.111 383.298C400.842 383.108 400.483 383.013 400.034 383.013C399.712 383.013 399.424 383.064 399.17 383.167C398.916 383.269 398.716 383.413 398.569 383.599C398.423 383.784 398.35 383.989 398.35 384.214C398.35 384.478 398.462 384.702 398.687 384.888C398.911 385.073 399.253 385.22 399.712 385.327L400.898 385.62C401.611 385.786 402.144 386.047 402.495 386.404C402.847 386.76 403.022 387.217 403.022 387.773C403.022 388.232 402.9 388.643 402.656 389.004C402.412 389.365 402.056 389.648 401.587 389.854C401.118 390.059 400.557 390.161 399.902 390.161C399.307 390.161 398.794 390.076 398.364 389.905C397.935 389.734 397.59 389.48 397.332 389.143C397.073 388.806 396.909 388.398 396.841 387.92H398.159C398.237 388.301 398.418 388.586 398.701 388.777C398.984 388.967 399.375 389.062 399.873 389.062C400.244 389.062 400.569 389.014 400.847 388.916C401.125 388.818 401.34 388.677 401.492 388.491C401.643 388.306 401.719 388.091 401.719 387.847C401.719 387.563 401.614 387.327 401.404 387.136C401.194 386.946 400.864 386.802 400.415 386.704L399.214 386.426C398.521 386.26 397.993 385.994 397.632 385.627C397.271 385.261 397.09 384.814 397.09 384.287C397.09 383.838 397.214 383.435 397.463 383.079C397.712 382.722 398.059 382.444 398.503 382.244C398.948 382.043 399.458 381.943 400.034 381.943C400.571 381.943 401.045 382.034 401.455 382.214C401.865 382.395 402.192 382.649 402.437 382.976C402.681 383.303 402.827 383.682 402.876 384.111H401.646ZM408.135 383.101H403.989V382.046H408.135V383.101ZM406.465 380.142V387.715C406.465 388.037 406.511 388.284 406.604 388.455C406.697 388.625 406.819 388.743 406.97 388.806C407.122 388.87 407.3 388.901 407.505 388.901C407.749 388.901 407.998 388.892 408.252 388.872V390.044C407.998 390.083 407.705 390.103 407.373 390.103C407.002 390.103 406.65 390.024 406.318 389.868C405.986 389.712 405.715 389.478 405.505 389.165C405.295 388.853 405.19 388.477 405.19 388.037V380.142H406.465ZM414.624 386.309C414.536 386.309 414.111 386.338 413.35 386.396L412.515 386.455C411.919 386.494 411.458 386.624 411.13 386.843C410.803 387.063 410.64 387.383 410.64 387.803C410.64 388.076 410.71 388.306 410.852 388.491C410.994 388.677 411.191 388.818 411.445 388.916C411.699 389.014 411.987 389.062 412.31 389.062C412.769 389.062 413.164 388.972 413.496 388.792C413.828 388.611 414.082 388.372 414.258 388.074C414.434 387.776 414.521 387.456 414.521 387.114V384.639C414.521 384.297 414.456 384.006 414.324 383.767C414.192 383.528 413.992 383.347 413.723 383.225C413.455 383.103 413.12 383.042 412.72 383.042C412.241 383.042 411.848 383.14 411.541 383.335C411.233 383.53 411.03 383.789 410.933 384.111H409.614C409.673 383.682 409.841 383.303 410.12 382.976C410.398 382.649 410.767 382.395 411.226 382.214C411.685 382.034 412.202 381.943 412.778 381.943C413.237 381.943 413.687 382.012 414.126 382.148C414.565 382.285 414.949 382.561 415.276 382.976C415.603 383.391 415.767 383.984 415.767 384.756V390H414.521V388.916H414.463C414.365 389.121 414.216 389.319 414.016 389.509C413.816 389.7 413.552 389.861 413.225 389.993C412.898 390.125 412.52 390.19 412.09 390.19C411.582 390.19 411.123 390.093 410.713 389.897C410.303 389.702 409.978 389.419 409.739 389.048C409.5 388.677 409.38 388.242 409.38 387.744C409.38 386.914 409.663 386.331 410.229 385.994C410.796 385.657 411.509 385.459 412.368 385.4C412.466 385.391 412.935 385.361 413.774 385.312L414.609 385.283L414.624 386.309ZM417.788 382.046H419.004V383.262H419.092C419.238 382.852 419.5 382.524 419.875 382.28C420.251 382.036 420.674 381.914 421.143 381.914C421.387 381.914 421.606 381.924 421.802 381.943V383.218C421.753 383.198 421.65 383.179 421.494 383.159C421.338 383.14 421.187 383.13 421.04 383.13C420.669 383.13 420.332 383.21 420.029 383.372C419.727 383.533 419.487 383.755 419.312 384.038C419.136 384.321 419.048 384.639 419.048 384.99V390H417.788V382.046ZM427.002 383.101H422.856V382.046H427.002V383.101ZM425.332 380.142V387.715C425.332 388.037 425.378 388.284 425.471 388.455C425.564 388.625 425.686 388.743 425.837 388.806C425.989 388.87 426.167 388.901 426.372 388.901C426.616 388.901 426.865 388.892 427.119 388.872V390.044C426.865 390.083 426.572 390.103 426.24 390.103C425.869 390.103 425.518 390.024 425.186 389.868C424.854 389.712 424.583 389.478 424.373 389.165C424.163 388.853 424.058 388.477 424.058 388.037V380.142H425.332Z" fill="white"/>
</svg>
