<svg width="77" height="21" viewBox="0 0 77 21" fill="none" xmlns="http://www.w3.org/2000/svg">
<path d="M9.18359 15H6.39062L5.87305 3.03711L3.59766 15H0.941406L3.92969 0.683594H8.12891L8.56836 10.7129L13.4512 0.683594H17.6992L14.7012 15H12.0156L14.8379 3.125L9.18359 15ZM20.5801 0.683594H23.3828L22.8555 3.22266H20.0527L20.5801 0.683594ZM19.7598 4.62891H22.5625L20.3945 15H17.5918L19.7598 4.62891ZM25.3652 4.62891H28.0215L27.748 5.97656C28.4121 5.40365 29.0306 4.99674 29.6035 4.75586C30.1829 4.50846 30.7917 4.38477 31.4297 4.38477C32.2826 4.38477 32.9531 4.62891 33.4414 5.11719C33.9362 5.60547 34.1836 6.25326 34.1836 7.06055C34.1836 7.42513 34.0762 8.11523 33.8613 9.13086L32.6406 15H29.8379L31.0684 9.11133C31.2507 8.23242 31.3418 7.70833 31.3418 7.53906C31.3418 7.18099 31.2344 6.90104 31.0195 6.69922C30.8112 6.49089 30.5182 6.38672 30.1406 6.38672C29.7305 6.38672 29.2747 6.55924 28.7734 6.9043C28.2721 7.24935 27.8783 7.70508 27.5918 8.27148C27.3835 8.67513 27.1491 9.4987 26.8887 10.7422L26 15H23.1973L25.3652 4.62891ZM44.9648 15H42.3086L42.543 13.877C42.0352 14.3652 41.5339 14.7168 41.0391 14.9316C40.5508 15.14 39.9974 15.2441 39.3789 15.2441C38.3047 15.2441 37.4323 14.8796 36.7617 14.1504C36.0977 13.4147 35.7656 12.3307 35.7656 10.8984C35.7656 9.23828 36.2344 7.73763 37.1719 6.39648C38.1094 5.05534 39.3496 4.38477 40.8926 4.38477C42.2858 4.38477 43.3307 4.93815 44.0273 6.04492L45.1504 0.683594H47.9531L44.9648 15ZM38.4902 10.7812C38.4902 11.5234 38.6758 12.1029 39.0469 12.5195C39.4245 12.9362 39.8867 13.1445 40.4336 13.1445C40.9414 13.1445 41.4134 12.972 41.8496 12.627C42.2923 12.2754 42.6439 11.7415 42.9043 11.0254C43.1712 10.3092 43.3047 9.6224 43.3047 8.96484C43.3047 8.21615 43.1029 7.61068 42.6992 7.14844C42.2956 6.6862 41.8301 6.45508 41.3027 6.45508C40.4824 6.45508 39.8086 6.91081 39.2812 7.82227C38.7539 8.73372 38.4902 9.72005 38.4902 10.7812ZM50.2969 7.79297L47.8066 7.34375C48.0866 6.34115 48.5684 5.59896 49.252 5.11719C49.9355 4.63542 50.9512 4.39453 52.2988 4.39453C53.5228 4.39453 54.4342 4.54102 55.0332 4.83398C55.6322 5.12044 56.0521 5.48828 56.293 5.9375C56.5404 6.38021 56.6641 7.19727 56.6641 8.38867L56.6348 11.5918C56.6348 12.5033 56.6771 13.1771 56.7617 13.6133C56.8529 14.043 57.0189 14.5052 57.2598 15H54.5449C54.4733 14.8177 54.3854 14.5475 54.2812 14.1895C54.2357 14.0267 54.2031 13.9193 54.1836 13.8672C53.7148 14.3229 53.2135 14.6647 52.6797 14.8926C52.1458 15.1204 51.5762 15.2344 50.9707 15.2344C49.903 15.2344 49.0599 14.9447 48.4414 14.3652C47.8294 13.7858 47.5234 13.0534 47.5234 12.168C47.5234 11.582 47.6634 11.0612 47.9434 10.6055C48.2233 10.1432 48.6139 9.79167 49.1152 9.55078C49.623 9.30339 50.3522 9.08854 51.3027 8.90625C52.5853 8.66536 53.474 8.44076 53.9688 8.23242V7.95898C53.9688 7.43164 53.8385 7.05729 53.5781 6.83594C53.3177 6.60807 52.8262 6.49414 52.1035 6.49414C51.6152 6.49414 51.2344 6.5918 50.9609 6.78711C50.6875 6.97591 50.4661 7.3112 50.2969 7.79297ZM53.9688 10.0195C53.6172 10.1367 53.0605 10.2767 52.2988 10.4395C51.5371 10.6022 51.0391 10.7617 50.8047 10.918C50.4466 11.1719 50.2676 11.4941 50.2676 11.8848C50.2676 12.2689 50.4108 12.6009 50.6973 12.8809C50.9837 13.1608 51.3483 13.3008 51.791 13.3008C52.2858 13.3008 52.7578 13.138 53.207 12.8125C53.5391 12.5651 53.7572 12.2624 53.8613 11.9043C53.9329 11.6699 53.9688 11.224 53.9688 10.5664V10.0195ZM62.0059 15H59.2617V4.62891H61.8105V6.10352C62.2467 5.4069 62.6374 4.94792 62.9824 4.72656C63.334 4.50521 63.7311 4.39453 64.1738 4.39453C64.7988 4.39453 65.401 4.56706 65.9805 4.91211L65.1309 7.30469C64.6686 7.00521 64.2389 6.85547 63.8418 6.85547C63.4577 6.85547 63.1322 6.96289 62.8652 7.17773C62.5983 7.38607 62.3867 7.76693 62.2305 8.32031C62.0807 8.8737 62.0059 10.0326 62.0059 11.7969V15ZM65.873 4.62891H68.793L71.2734 11.9922L73.6953 4.62891H76.5371L72.875 14.6094L72.2207 16.416C71.9798 17.0215 71.7487 17.4837 71.5273 17.8027C71.3125 18.1217 71.0618 18.3789 70.7754 18.5742C70.4954 18.776 70.1471 18.9323 69.7305 19.043C69.3203 19.1536 68.8548 19.209 68.334 19.209C67.8066 19.209 67.2891 19.1536 66.7812 19.043L66.5371 16.8945C66.9668 16.9792 67.3542 17.0215 67.6992 17.0215C68.3372 17.0215 68.8092 16.8327 69.1152 16.4551C69.4212 16.084 69.6556 15.6087 69.8184 15.0293L65.873 4.62891Z" fill="white"/>
<path d="M0.130859 18.1641H16.791V20.2637H0.130859V18.1641Z" fill="white"/>
</svg>
